<?xml version="1.0" encoding="utf-8"?>
<!-- Generator: Adobe Illustrator 21.1.0, SVG Export Plug-In . SVG Version: 6.00 Build 0)  -->
<svg version="1.1" id="レイヤー_1" xmlns="http://www.w3.org/2000/svg" xmlns:xlink="http://www.w3.org/1999/xlink" x="0px"
	 y="0px" viewBox="0 0 589.9 80" style="enable-background:new 0 0 589.9 80;" xml:space="preserve">
<style type="text/css">
	.st0{fill:#FFFFFF;}
</style>
<g>
	<path class="st0" d="M32.9,33.6h14.4c3.9,0,6.7-0.1,8.3-0.3s3.1-0.7,4.4-1.4c2.9-1.6,4.4-4.4,4.4-8.5s-1.5-7-4.4-8.5
		c-1.4-0.8-2.9-1.3-4.4-1.5c-1.6-0.2-4.3-0.3-8.3-0.3H20.9v20.6v13v26.1c0,1.2,0.3,2,0.8,2.7c0.6,0.6,1.5,1.1,2.9,1.5v1.8H0V77
		c1.4-0.4,2.3-0.9,2.9-1.5c0.5-0.6,0.8-1.5,0.8-2.6V6c0-1.2-0.3-2.1-0.8-2.7C2.3,2.7,1.4,2.2,0,1.8V0h49.2c6,0,10.7,0.3,14.3,1
		C67,1.7,70,2.9,72.6,4.7c3,2,5.3,4.7,6.8,8.1c1.4,3.3,2.1,6.8,2.1,10.6c0,12.8-7.1,20.3-21.4,22.5l15.3,21.7
		c2.7,3.8,4.7,6.2,5.9,7.3c1.2,1.1,2.8,1.7,4.6,1.8v1.8H65.3H64c0,0-4.4-6.3-6.2-8.9l-16-23.1L32.9,33.6z"/>
	<path class="st0" d="M177.2,6v44.1c0,8.3-1.5,14.6-4.6,18.7c-5.5,7.5-17,11.2-34.3,11.2c-12.5,0-22.1-2-28.7-6.1
		c-3.9-2.3-6.6-5.5-8.1-9.6c-1.5-4-2.2-8.8-2.2-14.3V6c0-1.2-0.3-2.1-0.8-2.7C98,2.7,97,2.2,95.7,1.8V0h24.5v1.8
		c-1.4,0.3-2.3,0.8-2.9,1.5c-0.5,0.6-0.8,1.5-0.8,2.7v39.2c0,4.5,0.2,7.9,0.7,10.1s1.4,4,2.8,5.4c3.7,3.9,10,5.9,18.9,5.9
		s15.3-2,19-5.9c1.3-1.5,2.3-3.3,2.8-5.4c0.5-2.2,0.7-5.5,0.7-10.1V6c0-1.2,0-6,0-6h19.5v1.8c-1.4,0.4-2.3,0.9-2.9,1.5
		C177.5,4,177.2,4.9,177.2,6z"/>
	<path class="st0" d="M217.6,24.8v47.8c0,1.2,0.3,2.1,0.8,2.7s1.5,1.1,2.9,1.5v1.8h-23.1v-1.8c1.4-0.4,2.3-0.9,2.9-1.5
		c0.5-0.6,0.8-1.5,0.8-2.7V6c0-1.2-0.3-2-0.8-2.6s-1.5-1.1-2.9-1.5V0h26.7v1.8c-1.7,0.4-2.5,1.3-2.5,2.7c0,0.9,0.5,1.9,1.6,3.1
		l43.4,45.1V6c0-1.2-0.3-2-0.8-2.6s-1.5-1.1-2.9-1.5V0h23.1v1.8c-1.4,0.4-2.3,0.9-2.9,1.5c-0.5,0.6-0.8,1.5-0.8,2.6v66.6
		c0,1.2,0.3,2.1,0.8,2.7s1.5,1.1,2.9,1.5v1.8H270c0,0-6.5-6.4-8.4-8.4L217.6,24.8z"/>
	<path class="st0" d="M367.7,23.2l-18,45.4c-1,2.3-3.9,10-3.9,10h-18.7v-1.8c2.6-0.5,3.9-1.8,3.9-3.9c0-0.6-0.5-2.3-1.6-5.1
		l-22.6-58c-1.1-2.9-2.1-4.8-3-5.8s-2.2-1.7-3.9-2V0h27.4v1.8c-2.4,0.5-3.6,1.7-3.6,3.4c0,0.9,0.3,2.2,0.9,3.8L340,50.7l16.8-41.8
		c0.7-1.8,1.1-3,1.1-3.6c0-1.8-1.3-2.9-3.9-3.4V0h28.6v1.8c-2.6,0.7-3.9,1.9-3.9,3.7c0,0.6,0.3,1.8,1,3.5l16.1,41.6l15.5-40.9
		c0.8-2,1.2-3.6,1.2-4.5c0-1.7-1.4-2.8-4.2-3.3V0h25.9v1.8c-1.9,0.5-2.2,1.2-2.9,2.1c-0.7,0.8-1.7,2.8-2.9,5.8l-22.5,58
		c-1.1,2.8-1.6,4.6-1.6,5.5c0,1.9,1.4,3.1,4.1,3.5v1.8h-19.2c0,0-3.1-8.2-4.3-10.9L367.7,23.2z"/>
	<path class="st0" d="M470.4,19.8l-22.3,58.8h-19.8v-1.8c1.5-0.3,2.7-0.8,3.5-1.6c0.8-0.8,1.7-2.3,2.8-4.5L459,10.3
		c0.9-1.9,1.4-3.5,1.4-4.6c0-1.8-1.1-3-3.3-3.8V0H485v1.8c-2.3,0.7-3.4,1.8-3.4,3.4c0,1.1,0.4,2.4,1.1,3.8L507,69.6
		c1.3,2.6,2.4,4.3,3.3,5.3c1,0.9,1.6,1.5,4.4,1.9v1.8h-23.6L470.4,19.8z"/>
	<path class="st0" d="M554.9,45.7v26.9c0,1.2,0.3,2.1,0.8,2.7s1.5,1.1,2.9,1.5v1.8h-24.7v-1.8c1.4-0.4,2.4-0.9,2.9-1.5
		c0.6-0.6,0.9-1.5,0.9-2.7V45.7L512.3,10c-2.2-3.1-3.9-5.1-5.2-6.2c-1.2-1.1-2.7-1.7-4.5-1.9V0h22.9c0,0,5.1,7.6,6.7,10l14.2,21
		L561,10c1.6-2.3,2.4-3.8,2.4-4.6c0-0.9-0.3-1.6-1-2.3c-0.7-0.6-1.6-1-2.8-1.2V0H590v1.8c-1.7,0.2-3.2,0.9-4.5,1.9
		c-1.2,1.1-3,3.1-5.2,6.2L554.9,45.7z"/>
</g>
</svg>
