<?xml version="1.0" encoding="utf-8"?>
<!-- Generator: Adobe Illustrator 21.1.0, SVG Export Plug-In . SVG Version: 6.00 Build 0)  -->
<svg version="1.1" id="レイヤー_1" xmlns="http://www.w3.org/2000/svg" xmlns:xlink="http://www.w3.org/1999/xlink" x="0px"
	 y="0px" viewBox="0 0 455.8 110.7" style="enable-background:new 0 0 455.8 110.7;" xml:space="preserve">
<style type="text/css">
	.st0{fill:#4D4949;}
	.st1{fill:#4D4948;}
</style>
<path class="st0" d="M109.9,70.3c-5.6,0-8.1,7-17.7,7c-6,0-13-4.8-13-13.5c0-10.2,5.9-14.7,13.6-14.7c7.9,0,11.4,7.4,15.9,7.4
	c2.7,0,6.6-1.3,6.6-6.3c0-6,0-13,0-16.1c0-0.2,0-0.4,0-0.6l0,0c0-3-1.1-6-3.5-7.5c-1.1-0.7-2.4-1.1-4-1c-7.8,0.2-23.2,8.8-40.6,11.4
	c5.9-3.3,9.9-9.7,9.9-16.9C77.2,8.7,68.5,0,57.7,0C47,0,38.3,8.7,38.3,19.5c0,7.3,4,13.7,10,17C32.4,34,21.5,26.1,11.6,25.1
	C6,24.5,0,27.1,0,36.3c0,6.1,0,20.6,0,20.6c0,5.1,1.8,9,6.2,9c5.8,0,6.8-6.4,17-6.4c6.1,0,13.1,2.7,13.1,14.2
	c0,9.8-6.8,13.6-13.6,13.6c-8.2,0-11.3-6.4-16.6-6.4c-4.3,0-6.6,4.1-5.9,12.6c0.5,7,3.4,17.2,12.5,17.2c13.8,0,28.2-10.3,45-10.3
	c21.1,0.1,29.3,9.2,39.7,10.2c7.5,0.7,12.4-3,14.2-7.8c1.9-5,4-13.6,3.9-24.1C115.4,73.8,114.3,70.3,109.9,70.3z"/>
<g>
	<path class="st1" d="M189.8,43l-35.1,49.5h35.6v5.6H147V93l35.2-49.5h-34.7v-5.6h42.3V43z"/>
	<path class="st1" d="M204.5,98.1h-6.1V37.9h6.1V98.1z"/>
	<path class="st1" d="M260.6,50.5c-2-2.2-4.5-3.9-7.3-5.1c-2.8-1.2-6.1-1.9-9.9-1.9c-3.9,0-7.3,0.7-10.4,2c-3.1,1.3-5.7,3.1-7.8,5.4
		c-2.1,2.2-3.8,4.8-4.9,7.8c-1.1,3-1.7,6.1-1.7,9.3c0,3.3,0.6,6.4,1.7,9.3c1.1,3,2.8,5.6,4.9,7.8c2.1,2.2,4.7,4,7.8,5.4
		c3.1,1.3,6.5,2,10.4,2c3.1,0,6.1-0.4,9-1.1c2.9-0.7,5.4-1.7,7.7-2.9V69.7h-14.4V64h20.5v28.2c-3.4,1.9-7.1,3.3-11.2,4.4
		c-4.1,1-7.9,1.5-11.6,1.5c-4.5,0-8.6-0.8-12.5-2.3c-3.8-1.5-7.1-3.6-9.9-6.3c-2.8-2.7-5-5.8-6.6-9.5c-1.6-3.7-2.4-7.7-2.4-12.1
		c0-4.4,0.8-8.4,2.4-12.1c1.6-3.7,3.8-6.8,6.6-9.5c2.8-2.7,6.1-4.8,9.9-6.3c3.8-1.5,8-2.3,12.5-2.3c4.8,0,9,0.7,12.5,2
		c3.5,1.3,6.6,3.4,9.3,6.1L260.6,50.5z"/>
	<path class="st1" d="M303.9,49.4c-2.6-3.9-6.5-5.9-11.6-5.9c-1.6,0-3.1,0.2-4.7,0.6c-1.5,0.4-2.9,1-4.1,1.9
		c-1.2,0.8-2.2,1.9-2.9,3.2c-0.7,1.3-1.1,2.9-1.1,4.6c0,2.6,0.8,4.6,2.3,6c1.5,1.4,3.4,2.6,5.7,3.5c2.3,0.9,4.7,1.7,7.4,2.5
		c2.7,0.7,5.2,1.7,7.4,2.9c2.3,1.2,4.2,2.8,5.7,4.8c1.5,2,2.3,4.7,2.3,8.1c0,2.6-0.6,4.9-1.7,7c-1.2,2.1-2.7,3.8-4.6,5.2
		c-1.9,1.4-4,2.5-6.4,3.2c-2.4,0.8-4.7,1.1-7.1,1.1c-3.7,0-7.2-0.7-10.5-2.1c-3.3-1.4-6.1-3.7-8.5-6.8l5.5-4c1.3,2.2,3.1,4,5.4,5.3
		c2.3,1.3,5.1,2,8.2,2c1.5,0,3.1-0.2,4.6-0.7c1.5-0.5,2.9-1.1,4.1-2c1.2-0.9,2.2-2,3-3.3c0.8-1.3,1.2-2.8,1.2-4.4c0-2-0.4-3.7-1.3-5
		c-0.9-1.3-2-2.4-3.5-3.3c-1.4-0.9-3.1-1.6-4.9-2.2c-1.8-0.6-3.7-1.2-5.7-1.8c-2-0.6-3.9-1.3-5.7-2c-1.8-0.8-3.5-1.7-4.9-2.9
		c-1.4-1.2-2.6-2.6-3.5-4.3c-0.9-1.7-1.3-3.9-1.3-6.6c0-2.7,0.6-5.1,1.7-7.2c1.1-2,2.6-3.7,4.4-5.1c1.8-1.3,3.9-2.3,6.2-3
		c2.3-0.6,4.7-1,7.1-1c3.4,0,6.5,0.5,9.3,1.6c2.8,1.1,5.4,3,7.7,5.7L303.9,49.4z"/>
	<path class="st1" d="M374.7,80.1c-1.6,3.7-3.8,6.8-6.6,9.5c-2.8,2.7-6.1,4.8-9.9,6.3c-3.8,1.5-8,2.3-12.5,2.3
		c-4.5,0-8.6-0.8-12.5-2.3c-3.8-1.5-7.1-3.6-9.9-6.3c-2.8-2.7-5-5.8-6.6-9.5c-1.6-3.7-2.4-7.7-2.4-12.1c0-4.4,0.8-8.4,2.4-12.1
		c1.6-3.7,3.8-6.8,6.6-9.5c2.8-2.7,6.1-4.8,9.9-6.3c3.8-1.5,8-2.3,12.5-2.3c4.5,0,8.6,0.8,12.5,2.3c3.8,1.5,7.1,3.6,9.9,6.3
		c2.8,2.7,5,5.8,6.6,9.5c1.6,3.7,2.4,7.7,2.4,12.1C377.1,72.4,376.3,76.4,374.7,80.1z M368.8,58.7c-1.1-3-2.8-5.6-4.9-7.8
		c-2.1-2.2-4.7-4-7.8-5.4c-3.1-1.3-6.5-2-10.4-2c-3.9,0-7.3,0.7-10.4,2c-3.1,1.3-5.7,3.1-7.8,5.4c-2.1,2.2-3.8,4.8-4.9,7.8
		c-1.1,3-1.7,6.1-1.7,9.3c0,3.3,0.6,6.4,1.7,9.3c1.1,3,2.8,5.6,4.9,7.8c2.1,2.2,4.7,4,7.8,5.4c3.1,1.3,6.5,2,10.4,2
		c3.9,0,7.3-0.7,10.4-2c3.1-1.3,5.7-3.1,7.8-5.4c2.1-2.2,3.8-4.8,4.9-7.8c1.1-3,1.7-6.1,1.7-9.3C370.5,64.8,369.9,61.7,368.8,58.7z"
		/>
	<path class="st1" d="M396.8,89.5h0.2l15.1-51.5h7.3l15.1,51.5h0.2L449,37.9h6.8L438,98.1h-7.1l-15.1-51.5h-0.2l-15.1,51.5h-7.1
		l-17.8-60.2h6.8L396.8,89.5z"/>
</g>
</svg>
