<?xml version="1.0" encoding="utf-8"?>
<!-- Generator: Adobe Illustrator 21.1.0, SVG Export Plug-In . SVG Version: 6.00 Build 0)  -->
<svg version="1.1" id="レイヤー_1" xmlns="http://www.w3.org/2000/svg" xmlns:xlink="http://www.w3.org/1999/xlink" x="0px"
	 y="0px" viewBox="0 0 115.4 110.7" style="enable-background:new 0 0 115.4 110.7;" xml:space="preserve">
<style type="text/css">
	.st0{fill:#4D4949;}
</style>
<path class="st0" d="M109.9,70.3c-5.6,0-8.1,7-17.7,7c-6,0-13-4.8-13-13.5c0-10.2,5.9-14.7,13.6-14.7c7.9,0,11.4,7.4,15.9,7.4
	c2.7,0,6.6-1.3,6.6-6.3c0-6,0-13,0-16.1c0-0.2,0-0.4,0-0.6l0,0c0-3-1.1-6-3.5-7.5c-1.1-0.7-2.4-1.1-4-1c-7.8,0.2-23.2,8.8-40.6,11.4
	c5.9-3.3,9.9-9.7,9.9-16.9C77.2,8.7,68.5,0,57.7,0C47,0,38.3,8.7,38.3,19.5c0,7.3,4,13.7,10,17C32.4,34,21.5,26.1,11.6,25.1
	C6,24.5,0,27.1,0,36.3c0,6.1,0,20.6,0,20.6c0,5.1,1.8,9,6.2,9c5.8,0,6.8-6.4,17-6.4c6.1,0,13.1,2.7,13.1,14.2
	c0,9.8-6.8,13.6-13.6,13.6c-8.2,0-11.3-6.4-16.6-6.4c-4.3,0-6.6,4.1-5.9,12.6c0.5,7,3.4,17.2,12.5,17.2c13.8,0,28.2-10.3,45-10.3
	c21.1,0.1,29.3,9.2,39.7,10.2c7.5,0.7,12.4-3,14.2-7.8c1.9-5,4-13.6,3.9-24.1C115.4,73.8,114.3,70.3,109.9,70.3z"/>
</svg>
